<?xml version="1.0" encoding="UTF-8"?>
<svg width="228px" height="51px" viewBox="0 0 228 51" version="1.1" xmlns="http://www.w3.org/2000/svg" xmlns:xlink="http://www.w3.org/1999/xlink">
    <title>anviz-logo-global</title>
    <g id="logo" stroke="none" stroke-width="1" fill="none" fill-rule="evenodd">
        <g transform="translate(-583.000000, -166.000000)" fill="#4A4A4A" id="anviz-global-logo">
            <path d="M803.155405,204.929857 C803.848341,204.929857 804.361856,205.083646 804.69595,205.391225 C805.030044,205.698804 805.197091,206.19199 805.197091,206.870785 L805.197091,206.870785 L805.197091,210.837489 L804.544812,210.837489 L804.369811,210.010208 L804.327386,210.010208 L804.203196,210.159073 C803.954926,210.442409 803.707304,210.639381 803.460332,210.749988 C803.172198,210.87903 802.812473,210.943551 802.381155,210.943551 C801.804887,210.943551 801.353241,210.795064 801.026218,210.498092 C800.699195,210.201119 800.535683,209.77864 800.535683,209.230655 C800.535683,208.056907 801.474328,207.44175 803.351619,207.385183 L803.351619,207.385183 L804.337992,207.353365 L804.337992,206.992755 L804.333393,206.827324 C804.311932,206.454368 804.215358,206.172767 804.043671,205.982518 C803.847457,205.765092 803.533692,205.656379 803.102374,205.656379 C802.618026,205.656379 802.070041,205.804865 801.458419,206.101838 L801.458419,206.101838 L801.187962,205.428347 L801.407874,205.317976 C801.632924,205.213903 801.873385,205.128722 802.129259,205.062434 C802.470424,204.974049 802.812473,204.929857 803.155405,204.929857 Z M795.195481,202.585895 L795.195481,204.59046 L795.192829,204.918588 C795.187526,205.238099 795.174269,205.531757 795.153056,205.799562 L795.153056,205.799562 L795.195481,205.799562 L795.302132,205.660651 C795.708308,205.173455 796.280845,204.929857 797.019741,204.929857 C797.783384,204.929857 798.376445,205.190592 798.798924,205.712061 C799.221403,206.233531 799.432642,206.971543 799.432642,207.926098 C799.432642,208.880652 799.219635,209.6222 798.793621,210.15074 C798.367607,210.67928 797.776313,210.943551 797.019741,210.943551 C796.641454,210.943551 796.29587,210.873727 795.982988,210.734079 C795.670107,210.594431 795.407604,210.379656 795.195481,210.089755 L795.195481,210.089755 L795.131844,210.089755 L794.946236,210.837489 L794.315169,210.837489 L794.315169,202.585895 L795.195481,202.585895 Z M780.850647,202.97302 C781.677928,202.97302 782.448642,203.125042 783.16279,203.429085 L783.16279,203.429085 L782.812787,204.224547 L782.514408,204.106364 C781.920896,203.88818 781.346864,203.779088 780.792313,203.779088 C779.848365,203.779088 779.111237,204.060152 778.580929,204.622278 C778.050621,205.184405 777.785467,205.963958 777.785467,206.960937 C777.785467,208.007411 778.040898,208.801106 778.551762,209.34202 C779.062625,209.882934 779.813011,210.153392 780.80292,210.153392 C781.340298,210.153392 781.865303,210.091522 782.377935,209.967784 L782.377935,209.967784 L782.377935,207.581397 L780.643827,207.581397 L780.643827,206.775329 L783.279458,206.775329 L783.279458,210.54582 L782.970554,210.637961 C782.660324,210.724136 782.346116,210.792413 782.027931,210.842792 C781.603685,210.909964 781.112266,210.943551 780.553675,210.943551 C779.379926,210.943551 778.466029,210.594431 777.811982,209.896192 C777.157935,209.197953 776.830912,208.219535 776.830912,206.960937 C776.830912,206.154869 776.992656,205.448675 777.316144,204.842356 C777.639632,204.236037 778.105419,203.772901 778.713506,203.452949 C779.321592,203.132996 780.033973,202.97302 780.850647,202.97302 Z M790.115129,204.919251 C790.928268,204.919251 791.57436,205.189708 792.053405,205.730622 C792.53245,206.271536 792.771973,207.003362 792.771973,207.926098 C792.771973,208.873581 792.533334,209.613361 792.056057,210.145437 C791.57878,210.677513 790.91943,210.943551 790.078008,210.943551 C789.558306,210.943551 789.096938,210.82158 788.693904,210.577638 C788.29087,210.333696 787.979756,209.983693 787.760562,209.527628 C787.541368,209.071563 787.431771,208.53772 787.431771,207.926098 C787.431771,206.978614 787.668641,206.240602 788.142383,205.712061 C788.616125,205.183521 789.273707,204.919251 790.115129,204.919251 Z M652.055379,182.530142 C654.946773,182.647109 655.827756,184.161327 656.605477,185.927241 L656.76021,186.283441 L656.837603,186.463421 L656.837603,186.463421 C658.885409,191.101348 660.424571,196.32608 662.691227,200.826926 C663.300879,202.043825 663.823954,202.899984 665.286157,202.812204 C665.274133,196.059132 665.286157,189.298845 665.278942,182.545774 L675.287101,182.545774 L675.287101,205.195499 C675.287101,206.753901 675.163246,207.969598 674.634159,208.918347 C674.050961,209.951269 673.126262,210.759328 671.437994,210.837489 L659.439748,210.837489 C656.450845,210.714363 655.608613,209.106713 654.811753,207.260565 L654.657525,206.900602 L654.657525,206.900602 C652.567632,202.173692 651.129477,197.169012 648.800293,192.534692 C648.187033,191.317793 647.668769,190.459229 646.206565,190.556629 C646.216185,197.309701 646.20897,204.06157 646.20897,210.819452 L636.199609,210.819452 L636.199609,188.169726 C636.199609,186.605313 636.328274,185.398033 636.863373,184.444474 C637.441761,183.406742 638.367663,182.604695 640.055931,182.530142 L652.055379,182.530142 Z M807.891056,202.585895 L807.891056,210.837489 L807.010745,210.837489 L807.010745,202.585895 L807.891056,202.585895 Z M785.888574,202.585895 L785.888574,210.837489 L785.008263,210.837489 L785.008263,202.585895 L785.888574,202.585895 Z M755.69976,182.529781 C758.755236,182.529781 762.040385,182.987922 762.201515,185.318309 L762.201515,192.974436 C762.053612,195.278368 759.961314,196.335339 757.667001,196.951004 C752.320819,198.434852 746.290432,200.069009 741.102976,201.707976 C739.700896,202.144472 738.711263,202.52806 738.818283,203.587436 C746.605479,203.577817 754.393877,203.587436 762.187086,203.582626 L762.187086,210.832318 L736.065829,210.832318 C733.015162,210.832318 729.731217,210.371772 729.560466,208.042588 L729.560466,200.391271 C729.711977,198.087338 731.805478,197.025557 734.102195,196.411095 C739.552992,194.898388 745.320038,193.339987 750.66622,191.648111 C752.063491,191.2044 753.053123,190.831634 752.946104,189.774663 C745.16011,189.78308 737.372914,189.77827 729.583313,189.77827 L729.583313,182.529781 L755.69976,182.529781 Z M621.177271,182.370333 L634.952768,210.829192 L622.499988,210.829192 L610.918999,186.070334 L599.344023,210.829192 L586.891243,210.829192 L600.670347,182.370333 C602.443635,178.713294 606.304775,178.144392 610.617406,178.120422 L610.918999,178.119602 C615.356114,178.119602 619.365149,178.628246 621.177271,182.370333 Z M687.158606,182.530021 L696.876969,203.386864 L706.590522,182.530021 L717.385096,182.530021 C713.323729,191.357931 712.288155,193.607985 712.063223,194.096074 L712.057243,194.106602 L712.056243,194.108602 L712.053243,194.115602 L712.049223,194.125525 L712.046243,194.129602 L712.049243,194.124602 L712.046307,194.132772 L712.038243,194.148602 L712.043243,194.136602 L712.037875,194.149893 L712.032243,194.161602 L712.026243,194.174602 L712.025243,194.176602 L712.022596,194.184175 L712.014243,194.199602 L712.011907,194.20702 L712.010243,194.209602 L712.009243,194.210602 L712.007243,194.214602 L711.990569,194.252659 C711.728498,194.822128 710.567788,197.345751 706.103522,207.051993 C705.073005,209.329471 703.363093,210.828951 701.435533,210.828951 C698.390879,210.819332 695.346225,210.819332 692.307583,210.828951 C690.376416,210.828951 688.673719,209.329471 687.634785,207.051993 C683.048035,197.08342 681.947215,194.690963 681.7265,194.210665 L681.726243,194.209602 L681.715243,194.186602 L681.710856,194.176616 L681.698243,194.149602 L681.704243,194.161602 L681.698243,194.148602 L681.691657,194.132772 L681.689243,194.129602 L681.683163,194.115936 L681.687243,194.124602 L681.674833,194.096074 C681.451006,193.607985 680.416886,191.357931 676.356818,182.530021 L687.158606,182.530021 Z M727.835042,182.530743 L727.835042,210.613228 L718.459383,210.613228 L718.459383,182.530743 L727.835042,182.530743 Z M804.31678,207.979128 L803.436468,208.01625 L803.210367,208.027609 C802.626723,208.066193 802.197413,208.17112 801.922439,208.342389 C801.613092,208.535068 801.458419,208.834692 801.458419,209.241262 C801.458419,209.559446 801.554759,209.80162 801.747437,209.967784 C801.940116,210.133947 802.209689,210.217028 802.556157,210.217028 C803.104142,210.217028 803.534575,210.066775 803.847457,209.766267 C804.160339,209.465759 804.31678,209.045048 804.31678,208.504133 L804.31678,208.504133 L804.31678,207.979128 Z M796.892467,205.666985 C796.291451,205.666985 795.858366,205.839335 795.593212,206.184036 C795.328058,206.528736 795.195481,207.109423 795.195481,207.926098 C795.195481,208.742772 795.331593,209.326995 795.603818,209.678766 C795.876043,210.030537 796.312663,210.206422 796.913679,210.206422 C797.454593,210.206422 797.857627,210.009324 798.122781,209.615129 C798.387935,209.220933 798.520512,208.654387 798.520512,207.915491 C798.520512,207.158919 798.387935,206.595024 798.122781,206.223809 C797.857627,205.852593 797.447522,205.666985 796.892467,205.666985 Z M790.088614,205.666985 C789.512346,205.666985 789.077493,205.856128 788.784056,206.234415 C788.490619,206.612701 788.3439,207.176596 788.3439,207.926098 C788.3439,208.668529 788.492387,209.234191 788.789359,209.623083 C789.086332,210.011976 789.522952,210.206422 790.09922,210.206422 C790.675488,210.206422 791.112992,210.01286 791.411733,209.625735 C791.710473,209.23861 791.859843,208.672064 791.859843,207.926098 C791.859843,207.187202 791.710473,206.625959 791.411733,206.242369 C791.112992,205.85878 790.671953,205.666985 790.088614,205.666985 Z M776.177925,172.943551 C780.362611,172.943551 783.788014,176.343069 783.788014,180.533507 C783.788014,184.738326 780.362611,188.134968 776.177925,188.134968 C771.984611,188.134968 768.573588,184.738326 768.573588,180.533507 C768.573588,176.343069 771.984611,172.943551 776.177925,172.943551 Z M776.177925,173.967433 C772.545445,173.967433 769.594594,176.912531 769.594594,180.533507 C769.594594,184.165987 772.545445,187.116838 776.177925,187.116838 C779.804653,187.116838 782.752628,184.165987 782.752628,180.533507 C782.752628,176.912531 779.804653,173.967433 776.177925,173.967433 Z M776.187416,176.40663 C776.903558,176.40663 777.432756,176.475656 777.803769,176.625212 C778.160402,176.783396 778.456638,177.033614 778.680971,177.416132 C778.888049,177.784269 778.997339,178.195547 778.997339,178.664347 C778.997339,179.256818 778.821899,179.745751 778.456638,180.154153 C778.100005,180.556803 777.527666,180.812774 776.785639,180.933569 C777.058866,181.054364 777.265943,181.192415 777.403995,181.321839 C777.703106,181.629579 777.999342,181.99484 778.284073,182.434879 L779.644456,184.692596 L778.335843,184.692596 L777.288952,182.964076 C776.984088,182.466516 776.73387,182.081122 776.549801,181.810771 C776.336972,181.554801 776.164407,181.387988 776.006223,181.267193 C775.853792,181.157903 775.70136,181.083125 775.537424,181.045736 C775.408,181.025603 775.229684,181.002595 774.956457,181.002595 L773.74563,181.002595 L773.74563,184.692596 L772.707368,184.692596 L772.707368,176.40663 L776.187416,176.40663 Z M776.242061,177.315469 L773.74563,177.315469 L773.74563,180.064995 L775.986091,180.064995 C776.460643,180.064995 776.831656,180.010349 777.102007,179.906811 C777.37811,179.803272 777.565055,179.63646 777.703106,179.406374 C777.844034,179.184916 777.933192,178.92607 777.933192,178.664347 C777.933192,178.273201 777.783636,177.945329 777.521914,177.695111 C777.242935,177.444892 776.823028,177.315469 776.242061,177.315469 Z"></path>
        </g>
    </g>
</svg>